<?xml version="1.0" encoding="UTF-8" standalone="no"?><!DOCTYPE svg PUBLIC "-//W3C//DTD SVG 1.1//EN" "http://www.w3.org/Graphics/SVG/1.1/DTD/svg11.dtd"><svg width="100%" height="100%" viewBox="0 0 31 31" version="1.1" xmlns="http://www.w3.org/2000/svg" xmlns:xlink="http://www.w3.org/1999/xlink" xml:space="preserve" xmlns:serif="http://www.serif.com/" style="fill-rule:evenodd;clip-rule:evenodd;stroke-linejoin:round;stroke-miterlimit:2;"><circle cx="15.206" cy="15.105" r="15" style="fill:url(#_Linear1);"/><path d="M21.798,15.105c0,3.64 -2.951,6.592 -6.592,6.592c-3.64,0 -6.592,-2.951 -6.592,-6.592c0,-3.64 2.951,-6.592 6.592,-6.592c3.64,0 6.592,2.951 6.592,6.592Zm-2.825,0c0,2.08 -1.686,3.767 -3.767,3.767c-2.08,0 -3.767,-1.686 -3.767,-3.767c0,-2.08 1.686,-3.767 3.767,-3.767c2.08,0 3.767,1.686 3.767,3.767Z" style="fill:#fff;"/><defs><linearGradient id="_Linear1" x1="0" y1="0" x2="1" y2="0" gradientUnits="userSpaceOnUse" gradientTransform="matrix(0,29.6132,-29.6132,0,0.399273,0.104987)"><stop offset="0" style="stop-color:#a3a49e;stop-opacity:1"/><stop offset="1" style="stop-color:#9298a4;stop-opacity:1"/></linearGradient></defs></svg>