<?xml version="1.0" encoding="UTF-8" standalone="no"?><!DOCTYPE svg PUBLIC "-//W3C//DTD SVG 1.1//EN" "http://www.w3.org/Graphics/SVG/1.1/DTD/svg11.dtd"><svg width="100%" height="100%" viewBox="0 0 31 31" version="1.1" xmlns="http://www.w3.org/2000/svg" xmlns:xlink="http://www.w3.org/1999/xlink" xml:space="preserve" xmlns:serif="http://www.serif.com/" style="fill-rule:evenodd;clip-rule:evenodd;stroke-linejoin:round;stroke-miterlimit:2;"><circle cx="15.206" cy="15.231" r="15" style="fill:url(#_Linear1);"/><g><path d="M18.031,19.315c0.185,-0.678 -0.174,-2.071 -0.174,-2.071c0,0 -0.261,1.135 -0.669,1.554c-0.348,0.358 -0.774,0.606 -1.385,0.671c0.5,-0.243 0.843,-0.749 0.843,-1.334c0,-0.821 -0.677,-1.487 -1.512,-1.487c-0.835,0 -1.512,0.666 -1.512,1.487c0,0.224 0.05,0.437 0.141,0.628c-0.522,-0.416 -0.605,-1.083 -0.605,-1.083c0,0 -0.583,2.422 1.024,3.561c1.607,1.139 4.756,0.16 4.756,0.16c0,0 -4.506,3.171 -7.845,-0.28c-2.876,-2.973 -0.751,-6.886 -0.751,-6.886c0,0 -0.092,0.363 -0.092,0.785c0,0.421 0.229,0.742 0.229,0.742c0,0 0.682,-1.437 1.212,-2.021c0.502,-0.553 1.131,-1.001 1.675,-1.389c0.418,-0.298 0.786,-0.56 1.005,-0.806c1.209,-1.352 0.468,-3.815 0.468,-3.815c0,0 1.363,1.202 1.744,2.754c0.145,0.592 0.052,1.265 -0.032,1.867c-0.136,0.977 -0.245,1.767 0.734,1.716c1.581,-0.083 0.207,-2.521 0.207,-2.521c0,0 3.587,1.886 3.319,5.183c-0.268,3.298 -3.921,4.047 -3.921,4.047c0,0 0.955,-0.784 1.141,-1.462Z" style="fill:#fff;"/></g><defs><linearGradient id="_Linear1" x1="0" y1="0" x2="1" y2="0" gradientUnits="userSpaceOnUse" gradientTransform="matrix(0,30,-30,0,0.20588,0.230829)"><stop offset="0" style="stop-color:#fbae46;stop-opacity:1"/><stop offset="1" style="stop-color:#fb9b51;stop-opacity:1"/></linearGradient></defs></svg>