<?xml version="1.0" encoding="UTF-8" standalone="no"?><!DOCTYPE svg PUBLIC "-//W3C//DTD SVG 1.1//EN" "http://www.w3.org/Graphics/SVG/1.1/DTD/svg11.dtd"><svg width="100%" height="100%" viewBox="0 0 31 31" version="1.1" xmlns="http://www.w3.org/2000/svg" xmlns:xlink="http://www.w3.org/1999/xlink" xml:space="preserve" xmlns:serif="http://www.serif.com/" style="fill-rule:evenodd;clip-rule:evenodd;stroke-linejoin:round;stroke-miterlimit:2;"><circle cx="15.206" cy="15.117" r="15" style="fill:url(#_Linear1);"/><g><path d="M20.072,17.768c0,2.677 -2.178,4.848 -4.866,4.848c-2.687,0 -4.866,-2.17 -4.866,-4.848c0,-2.604 4.603,-9.755 4.855,-10.145c0.006,-0.009 0.016,-0.009 0.022,0c0.252,0.39 4.855,7.541 4.855,10.145Zm-5.677,3.293c-2.469,-0.54 -2.047,-3.275 -2.047,-3.275c0,0 0.674,1.651 2.31,2.186c1.636,0.535 3.613,-0.25 3.613,-0.25c0,0 -1.408,1.879 -3.877,1.339Z" style="fill:#fff;"/></g><defs><linearGradient id="_Linear1" x1="0" y1="0" x2="1" y2="0" gradientUnits="userSpaceOnUse" gradientTransform="matrix(0,30,-30,0,0.20588,0.116671)"><stop offset="0" style="stop-color:#6cbde4;stop-opacity:1"/><stop offset="0.99" style="stop-color:#4a90dd;stop-opacity:1"/><stop offset="1" style="stop-color:#4a90dd;stop-opacity:1"/></linearGradient></defs></svg>