<?xml version="1.0" encoding="UTF-8" standalone="no"?><!DOCTYPE svg PUBLIC "-//W3C//DTD SVG 1.1//EN" "http://www.w3.org/Graphics/SVG/1.1/DTD/svg11.dtd"><svg width="100%" height="100%" viewBox="0 0 31 31" version="1.1" xmlns="http://www.w3.org/2000/svg" xmlns:xlink="http://www.w3.org/1999/xlink" xml:space="preserve" xmlns:serif="http://www.serif.com/" style="fill-rule:evenodd;clip-rule:evenodd;stroke-linejoin:round;stroke-miterlimit:2;"><circle cx="15.206" cy="15.128" r="15" style="fill:url(#_Linear1);"/><g><path d="M10.669,20.508c-0.051,-0.048 -0.102,-0.098 -0.153,-0.148c-2.657,-2.657 -2.657,-6.964 0,-9.621c2.657,-2.657 11.122,-2.835 11.122,-2.835c0,0 1.155,9.799 -1.501,12.456c-2.36,2.36 -6.021,2.623 -8.672,0.792l2.136,-2.621l3.415,-0.737l-2.787,-0.279l1.771,-1.803l2.016,-0.442l-1.594,-0.472l1.594,-2.876l-2.268,2.544l-0.876,-1.236l0.308,2.04l-1.58,1.781l-0.732,-2.253l0,2.996l-2.2,2.715Z" style="fill:#fff;"/></g><defs><linearGradient id="_Linear1" x1="0" y1="0" x2="1" y2="0" gradientUnits="userSpaceOnUse" gradientTransform="matrix(0,30,-30,0,0.20588,0.128355)"><stop offset="0" style="stop-color:#5ac178;stop-opacity:1"/><stop offset="1" style="stop-color:#5fbc51;stop-opacity:1"/></linearGradient></defs></svg>