<?xml version="1.0" encoding="UTF-8" standalone="no"?><!DOCTYPE svg PUBLIC "-//W3C//DTD SVG 1.1//EN" "http://www.w3.org/Graphics/SVG/1.1/DTD/svg11.dtd"><svg width="100%" height="100%" viewBox="0 0 31 31" version="1.1" xmlns="http://www.w3.org/2000/svg" xmlns:xlink="http://www.w3.org/1999/xlink" xml:space="preserve" xmlns:serif="http://www.serif.com/" style="fill-rule:evenodd;clip-rule:evenodd;stroke-linejoin:round;stroke-miterlimit:2;"><circle cx="15.206" cy="15.14" r="15" style="fill:url(#_Linear1);"/><g><clipPath id="_clip2"><rect x="7.706" y="7.64" width="15" height="15"/></clipPath><g clip-path="url(#_clip2)"><path d="M10.293,8.887c0.182,-0.717 0.831,-1.247 1.604,-1.247c0.58,0 1.09,0.298 1.386,0.75l0.484,0c0.301,-0.308 0.72,-0.5 1.185,-0.5c0.681,0 1.266,0.412 1.52,1l0.405,0c0.254,-0.158 0.554,-0.25 0.875,-0.25c0.681,0 1.266,0.412 1.52,1l1.101,0c0.009,0 0.018,0.003 0.026,0.007c0.05,-0.005 0.101,-0.007 0.153,-0.007c0.914,0 1.655,0.741 1.655,1.655l0,5.051c0,0.03 -0.001,0.06 -0.003,0.09c-0.099,3.442 -3.194,6.204 -6.997,6.204c-3.866,0 -7,-2.854 -7,-6.375c0,-1.7 0.73,-3.244 1.921,-4.386c-0.003,1.657 0.025,3.37 0.154,3.34c0.345,-0.079 0.076,-5.21 0.012,-6.332Z" style="fill:#fff;"/></g></g><defs><linearGradient id="_Linear1" x1="0" y1="0" x2="1" y2="0" gradientUnits="userSpaceOnUse" gradientTransform="matrix(0,29.6132,-29.6132,0,0.399273,0.14004)"><stop offset="0" style="stop-color:#e74347;stop-opacity:1"/><stop offset="1" style="stop-color:#ce4265;stop-opacity:1"/></linearGradient></defs></svg>