<?xml version="1.0" encoding="UTF-8" standalone="no"?><!DOCTYPE svg PUBLIC "-//W3C//DTD SVG 1.1//EN" "http://www.w3.org/Graphics/SVG/1.1/DTD/svg11.dtd"><svg width="100%" height="100%" viewBox="0 0 31 31" version="1.1" xmlns="http://www.w3.org/2000/svg" xmlns:xlink="http://www.w3.org/1999/xlink" xml:space="preserve" xmlns:serif="http://www.serif.com/" style="fill-rule:evenodd;clip-rule:evenodd;stroke-linejoin:round;stroke-miterlimit:2;"><circle cx="15.206" cy="15.093" r="15" style="fill:url(#_Linear1);"/><g><clipPath id="_clip2"><rect x="7.706" y="7.593" width="15" height="15"/></clipPath><g clip-path="url(#_clip2)"><path d="M11.01,20.488c-0.004,0 -0.007,-0.004 -0.006,-0.008l3.83,-10.821c0.001,-0.002 0.003,-0.004 0.005,-0.004l4.088,0c0.003,0 0.005,0.002 0.006,0.004l3.773,10.821c0.001,0.004 -0.002,0.008 -0.006,0.008l-11.69,0Zm-3.298,0.042c-0.004,0 -0.007,-0.004 -0.006,-0.008l2.852,-7.613c0.001,-0.002 0.003,-0.004 0.005,-0.004l2.478,0c0.004,0 0.007,0.004 0.006,0.008l-2.758,7.613c-0.001,0.002 -0.003,0.004 -0.006,0.004l-2.572,0Z" style="fill:#fff;"/></g></g><defs><linearGradient id="_Linear1" x1="0" y1="0" x2="1" y2="0" gradientUnits="userSpaceOnUse" gradientTransform="matrix(0,29.6132,-29.6132,0,0.399273,0.092523)"><stop offset="0" style="stop-color:#d29463;stop-opacity:1"/><stop offset="1" style="stop-color:#dc7545;stop-opacity:1"/></linearGradient></defs></svg>