<?xml version="1.0" encoding="UTF-8" standalone="no"?><!DOCTYPE svg PUBLIC "-//W3C//DTD SVG 1.1//EN" "http://www.w3.org/Graphics/SVG/1.1/DTD/svg11.dtd"><svg width="100%" height="100%" viewBox="0 0 31 31" version="1.1" xmlns="http://www.w3.org/2000/svg" xmlns:xlink="http://www.w3.org/1999/xlink" xml:space="preserve" xmlns:serif="http://www.serif.com/" style="fill-rule:evenodd;clip-rule:evenodd;stroke-linejoin:round;stroke-miterlimit:2;"><circle cx="15.206" cy="15.049" r="15" style="fill:url(#_Linear1);"/><g><clipPath id="_clip2"><rect x="7.706" y="7.549" width="15" height="15"/></clipPath><g clip-path="url(#_clip2)"><path d="M17.728,7.564c0.011,-0.016 0.032,-0.019 0.048,-0.008l1.065,0.746c0.015,0.011 0.019,0.032 0.008,0.048l-1.482,2.117c0.721,0.23 1.212,0.479 1.212,0.479c0,0 -1.2,2.064 -3.236,2.064c-2.036,0 -3.482,-1.924 -3.482,-1.924c0,0 0.513,-0.327 1.273,-0.608l-1.626,-1.938c-0.012,-0.015 -0.01,-0.036 0.004,-0.049l0.996,-0.836c0.015,-0.012 0.036,-0.01 0.049,0.004l2.059,2.454c0.176,-0.02 0.356,-0.031 0.537,-0.031c0.261,0 0.521,0.02 0.775,0.053l1.8,-2.571Zm0.403,5.543c0.543,-0.388 1.365,-1.401 1.365,-1.401c0,0 2.1,1.664 2.1,5.192c0,3.528 -3.63,5.651 -3.63,5.651c0,0 -1.734,-1.751 -2.16,-3.972c-0.426,-2.22 0.63,-4.685 0.63,-4.685c0,0 1.152,-0.397 1.695,-0.785Zm-5.85,0c-0.543,-0.388 -1.365,-1.401 -1.365,-1.401c0,0 -2.1,1.664 -2.1,5.192c0,3.528 3.63,5.651 3.63,5.651c0,0 1.734,-1.751 2.16,-3.972c0.426,-2.22 -0.63,-4.685 -0.63,-4.685c0,0 -1.152,-0.397 -1.695,-0.785Z" style="fill:#fff;"/></g></g><defs><linearGradient id="_Linear1" x1="0" y1="0" x2="1" y2="0" gradientUnits="userSpaceOnUse" gradientTransform="matrix(0,30,-30,0,15.20588,0.04925)"><stop offset="0" style="stop-color:#afc836;stop-opacity:1"/><stop offset="1" style="stop-color:#92bc2c;stop-opacity:1"/></linearGradient></defs></svg>