<?xml version="1.0" encoding="UTF-8" standalone="no"?><!DOCTYPE svg PUBLIC "-//W3C//DTD SVG 1.1//EN" "http://www.w3.org/Graphics/SVG/1.1/DTD/svg11.dtd"><svg width="100%" height="100%" viewBox="0 0 31 31" version="1.1" xmlns="http://www.w3.org/2000/svg" xmlns:xlink="http://www.w3.org/1999/xlink" xml:space="preserve" xmlns:serif="http://www.serif.com/" style="fill-rule:evenodd;clip-rule:evenodd;stroke-linejoin:round;stroke-miterlimit:2;"><circle cx="15.206" cy="15.175" r="15" style="fill:url(#_Linear1);"/><g><clipPath id="_clip2"><rect x="7.706" y="7.675" width="15" height="15"/></clipPath><g clip-path="url(#_clip2)"><path d="M19.311,15.264c-0.001,-0.001 -0.001,-0.003 -0.001,-0.004l0.957,-5.58c0,-0.003 0.003,-0.004 0.005,-0.004l0.303,0c0.002,0 0.004,0.002 0.005,0.004l2.156,6.826c0.001,0.002 -0,0.005 -0.002,0.006l-1.59,1.241c-0.002,0.002 -0.006,0.001 -0.008,-0.001l-1.826,-2.487Zm-11.606,3.699c0,0.002 0.001,0.004 0.004,0.005l3.277,1.071c0.002,0 0.003,0 0.005,-0.001l7.325,-5.057c0.001,-0.001 0.002,-0.002 0.002,-0.004l0.785,-5.27c0,-0.003 -0.002,-0.006 -0.005,-0.006l-6.488,0c-0.002,0 -0.003,0.001 -0.004,0.002l-4.899,5.91c-0.001,0.001 -0.001,0.002 -0.001,0.003l0,3.346Zm4.646,1.349l3.58,1.173c0.002,0.001 0.003,0 0.005,-0.001l4.262,-3.057c0.002,-0.002 0.003,-0.005 0.001,-0.007l-1.598,-2.377c-0.002,-0.003 -0.005,-0.003 -0.007,-0.002l-6.243,4.272Z" style="fill:#fff;"/></g></g><defs><linearGradient id="_Linear1" x1="0" y1="0" x2="1" y2="0" gradientUnits="userSpaceOnUse" gradientTransform="matrix(0,30,-30,0,0.20588,0.175093)"><stop offset="0" style="stop-color:#d7cd90;stop-opacity:1"/><stop offset="1" style="stop-color:#c5b489;stop-opacity:1"/></linearGradient></defs></svg>