<?xml version="1.0" encoding="UTF-8" standalone="no"?><!DOCTYPE svg PUBLIC "-//W3C//DTD SVG 1.1//EN" "http://www.w3.org/Graphics/SVG/1.1/DTD/svg11.dtd"><svg width="100%" height="100%" viewBox="0 0 31 31" version="1.1" xmlns="http://www.w3.org/2000/svg" xmlns:xlink="http://www.w3.org/1999/xlink" xml:space="preserve" xmlns:serif="http://www.serif.com/" style="fill-rule:evenodd;clip-rule:evenodd;stroke-linejoin:round;stroke-miterlimit:2;"><circle cx="15.206" cy="15.061" r="15" style="fill:url(#_Linear1);"/><g><clipPath id="_clip2"><rect x="7.706" y="7.561" width="15" height="15"/></clipPath><g clip-path="url(#_clip2)"><path d="M18.515,22.509c-1.353,0.069 -2.902,0.069 -3.428,0c-4.106,-0.54 -7.381,-3.542 -7.381,-7.6c0,-4.058 3.358,-7.348 7.5,-7.348c4.142,0 7.5,3.29 7.5,7.348c0,1.887 -0.726,3.608 -1.92,4.91c-0.324,0.353 0.121,0.601 0.573,0.853c0.443,0.247 0.893,0.498 0.632,0.856c-0.288,0.394 -1.851,0.899 -3.475,0.982Zm-4.364,-8.519c0,0.634 -0.525,1.148 -1.172,1.148c-0.647,0 -1.172,-0.514 -1.172,-1.148c0,-0.425 0.236,-0.796 0.587,-0.995c0.02,0.553 1.199,0.995 1.757,0.995Zm3.632,-0.995c-0.02,0.553 -1.199,0.995 -1.757,0.995c0,0.634 0.525,1.148 1.172,1.148c0.647,0 1.172,-0.514 1.172,-1.148c0,-0.425 -0.236,-0.796 -0.587,-0.995Z" style="fill:#fff;"/></g></g><defs><linearGradient id="_Linear1" x1="0" y1="0" x2="1" y2="0" gradientUnits="userSpaceOnUse" gradientTransform="matrix(0,29.6132,-29.6132,0,0.399273,0.060935)"><stop offset="0" style="stop-color:#7773d4;stop-opacity:1"/><stop offset="1" style="stop-color:#516aac;stop-opacity:1"/></linearGradient></defs></svg>