<?xml version="1.0" encoding="UTF-8" standalone="no"?><!DOCTYPE svg PUBLIC "-//W3C//DTD SVG 1.1//EN" "http://www.w3.org/Graphics/SVG/1.1/DTD/svg11.dtd"><svg width="100%" height="100%" viewBox="0 0 31 31" version="1.1" xmlns="http://www.w3.org/2000/svg" xmlns:xlink="http://www.w3.org/1999/xlink" xml:space="preserve" xmlns:serif="http://www.serif.com/" style="fill-rule:evenodd;clip-rule:evenodd;stroke-linejoin:round;stroke-miterlimit:2;"><circle cx="15.206" cy="15.187" r="15" style="fill:url(#_Linear1);"/><g><clipPath id="_clip2"><rect x="7.706" y="7.687" width="15" height="15"/></clipPath><g clip-path="url(#_clip2)"><path d="M15.934,15.154c0.102,-0.062 0.188,-0.192 0.257,-0.336c0.915,0.374 1.559,1.258 1.559,2.289c0,1.37 -1.135,2.48 -2.536,2.48c-0.575,0 -1.105,-0.187 -1.53,-0.502c-0.139,-0.066 -0.254,-0.13 -0.348,-0.181c-0.146,-0.081 -0.241,-0.133 -0.301,-0.125c-0.175,0.024 -0.124,0.185 -0.078,0.331c0.031,0.099 0.06,0.192 0.015,0.23c-0.047,0.04 -0.2,-0.106 -0.379,-0.277c-0.244,-0.232 -0.535,-0.51 -0.672,-0.427c-0.109,0.066 -0.003,0.245 0.126,0.464l0.01,0.016c0.055,0.093 0.118,0.187 0.175,0.273c0.117,0.175 0.212,0.316 0.164,0.34c-0.057,0.029 -0.455,-0.24 -0.79,-0.613c-0.13,-0.144 -0.255,-0.3 -0.371,-0.445c-0.255,-0.317 -0.468,-0.582 -0.587,-0.55c-0.143,0.038 -0.035,0.334 0.124,0.618c0.075,0.133 0.162,0.269 0.238,0.386c0.118,0.183 0.208,0.321 0.175,0.338c-0.044,0.023 -0.43,-0.354 -0.692,-0.828c-0.156,-0.282 -0.287,-0.593 -0.392,-0.845c-0.115,-0.274 -0.2,-0.477 -0.257,-0.498c-0.196,-0.071 -0.196,0.328 -0.117,0.904c0.01,0.075 0.025,0.154 0.044,0.234c0.761,2.463 3.1,4.256 5.867,4.256c3.384,0 6.128,-2.683 6.128,-5.993c0,-3.15 -2.485,-5.733 -5.643,-5.975c0.004,-0.149 0.081,-0.443 0.081,-0.443c0,0 0.557,-1.349 0.587,-1.637c0.002,-0.019 0.004,-0.04 0.007,-0.062c0.035,-0.311 0.099,-0.89 -0.399,-0.89c-0.266,0 -0.39,0.198 -0.531,0.424c-0.054,0.087 -0.111,0.178 -0.18,0.264c-0.494,0.617 -1.325,1.388 -1.796,1.798c-0.996,0.868 -1.973,1.581 -2.543,1.997c-0.259,0.189 -0.434,0.317 -0.488,0.37c-0.408,0.398 -1.871,3.036 -1.871,3.036c0,0 -0.473,0.847 -0.305,1.018c0.168,0.172 0.574,0.132 0.574,0.132c0,0 5.448,-1.25 5.935,-1.348c0.131,-0.027 0.224,-0.042 0.295,-0.054c0.193,-0.032 0.228,-0.038 0.446,-0.171Zm-3.852,-1.606c-0.292,0.278 -0.777,0.941 -0.777,0.941c0,0 0.901,0.056 1.398,-0.416c0.496,-0.472 0.383,-1.276 0.383,-1.276c0,0 -0.711,0.473 -1.003,0.751Z" style="fill:#fff;"/></g></g><defs><linearGradient id="_Linear1" x1="0" y1="0" x2="1" y2="0" gradientUnits="userSpaceOnUse" gradientTransform="matrix(0,29.6132,-29.6132,0,0.399273,0.186777)"><stop offset="0" style="stop-color:#0180c7;stop-opacity:1"/><stop offset="1" style="stop-color:#0c69c8;stop-opacity:1"/></linearGradient></defs></svg>