<?xml version="1.0" encoding="UTF-8" standalone="no"?><!DOCTYPE svg PUBLIC "-//W3C//DTD SVG 1.1//EN" "http://www.w3.org/Graphics/SVG/1.1/DTD/svg11.dtd"><svg width="100%" height="100%" viewBox="0 0 31 31" version="1.1" xmlns="http://www.w3.org/2000/svg" xmlns:xlink="http://www.w3.org/1999/xlink" xml:space="preserve" xmlns:serif="http://www.serif.com/" style="fill-rule:evenodd;clip-rule:evenodd;stroke-linejoin:round;stroke-miterlimit:2;"><circle cx="15.206" cy="15.084" r="15" style="fill:url(#_Linear1);"/><g><path d="M10.715,19.478l2.406,-0.698l2.078,3.799c0.003,0.005 0.01,0.005 0.013,0l2.078,-3.799l2.406,0.698c0.005,0.002 0.01,-0.003 0.009,-0.009l-0.698,-2.358l3.695,-2.021c0.005,-0.003 0.005,-0.01 0,-0.013l-3.725,-2.037l0.728,-2.461c0.002,-0.005 -0.003,-0.01 -0.009,-0.009l-2.462,0.714l-2.022,-3.696c-0.003,-0.005 -0.01,-0.005 -0.013,0l-2.022,3.696l-2.462,-0.714c-0.005,-0.002 -0.01,0.003 -0.009,0.009l0.728,2.461l-3.725,2.037c-0.005,0.003 -0.005,0.01 0,0.013l3.695,2.021l-0.698,2.358c-0.002,0.005 0.003,0.01 0.009,0.009Zm1.867,-4.368l1.704,0.932l0.932,1.704c0.003,0.005 0.01,0.005 0.013,0l0.932,-1.704l1.704,-0.932c0.005,-0.003 0.005,-0.01 0,-0.013l-1.704,-0.932l-0.932,-1.704c-0.003,-0.005 -0.01,-0.005 -0.013,0l-0.932,1.704l-1.704,0.932c-0.005,0.003 -0.005,0.01 0,0.013Z" style="fill:#fff;"/></g><defs><linearGradient id="_Linear1" x1="0" y1="0" x2="1" y2="0" gradientUnits="userSpaceOnUse" gradientTransform="matrix(0,29.5076,-29.5076,0,0.452096,0.084303)"><stop offset="0" style="stop-color:#f3a7e7;stop-opacity:1"/><stop offset="1" style="stop-color:#ec8ce5;stop-opacity:1"/></linearGradient></defs></svg>