<?xml version="1.0" encoding="UTF-8" standalone="no"?><!DOCTYPE svg PUBLIC "-//W3C//DTD SVG 1.1//EN" "http://www.w3.org/Graphics/SVG/1.1/DTD/svg11.dtd"><svg width="100%" height="100%" viewBox="0 0 31 31" version="1.1" xmlns="http://www.w3.org/2000/svg" xmlns:xlink="http://www.w3.org/1999/xlink" xml:space="preserve" xmlns:serif="http://www.serif.com/" style="fill-rule:evenodd;clip-rule:evenodd;stroke-linejoin:round;stroke-miterlimit:2;"><circle cx="15.206" cy="15.003" r="15" style="fill:url(#_Linear1);"/><path d="M12.348,8.971c-0.095,-0.285 0.117,-0.578 0.417,-0.578l4.146,0c0.195,0 0.366,0.128 0.422,0.315l2.069,6.964c0.084,0.282 -0.127,0.565 -0.422,0.565l-2.515,0c-0.145,0 -0.25,0.138 -0.212,0.278l1.238,4.54c0.129,0.472 -0.494,0.77 -0.781,0.373l-5.638,-7.809c-0.21,-0.291 -0.002,-0.697 0.357,-0.697l1.925,0c0.15,0 0.256,-0.147 0.209,-0.289l-1.216,-3.66Z" style="fill:#fff;"/><defs><linearGradient id="_Linear1" x1="0" y1="0" x2="1" y2="0" gradientUnits="userSpaceOnUse" gradientTransform="matrix(0,29.6132,-29.6132,0,0.399273,0.002513)"><stop offset="0" style="stop-color:#fbe273;stop-opacity:1"/><stop offset="1" style="stop-color:#edd53e;stop-opacity:1"/></linearGradient></defs></svg>