<?xml version="1.0" encoding="UTF-8" standalone="no"?><!DOCTYPE svg PUBLIC "-//W3C//DTD SVG 1.1//EN" "http://www.w3.org/Graphics/SVG/1.1/DTD/svg11.dtd"><svg width="100%" height="100%" viewBox="0 0 31 31" version="1.1" xmlns="http://www.w3.org/2000/svg" xmlns:xlink="http://www.w3.org/1999/xlink" xml:space="preserve" xmlns:serif="http://www.serif.com/" style="fill-rule:evenodd;clip-rule:evenodd;stroke-linejoin:round;stroke-miterlimit:2;"><circle cx="15.206" cy="15.014" r="15" style="fill:url(#_Linear1);"/><g><path d="M19.016,8.587l0.004,4.07l-3.487,1.65l0,-3.78l3.483,-1.94Z" style="fill:#fff;"/><path d="M22.52,14.99l-3.504,1.71l-3.483,-1.71l3.483,-1.676l3.504,1.676Z" style="fill:#fff;"/><path d="M14.893,14.99l-3.502,1.71l-3.5,-1.714l3.462,-1.673l3.539,1.676Z" style="fill:#fff;"/><path d="M11.354,8.587l3.539,1.94l0.001,3.78l-3.54,-1.727l0,-3.992Z" style="fill:#fff;"/><path d="M19.019,21.442l-3.487,-1.916l0,-3.913l3.487,1.699l0,4.13Z" style="fill:#fff;"/><path d="M11.392,21.442l0,-4.13l3.502,-1.699l0,3.913l-3.502,1.916Z" style="fill:#fff;"/></g><defs><linearGradient id="_Linear1" x1="0" y1="0" x2="1" y2="0" gradientUnits="userSpaceOnUse" gradientTransform="matrix(0,30,-30,0,0.20588,0.014197)"><stop offset="0" style="stop-color:#8cddd4;stop-opacity:1"/><stop offset="1" style="stop-color:#70ccbd;stop-opacity:1"/></linearGradient></defs></svg>