<?xml version="1.0" encoding="UTF-8" standalone="no"?><!DOCTYPE svg PUBLIC "-//W3C//DTD SVG 1.1//EN" "http://www.w3.org/Graphics/SVG/1.1/DTD/svg11.dtd"><svg width="100%" height="100%" viewBox="0 0 31 31" version="1.1" xmlns="http://www.w3.org/2000/svg" xmlns:xlink="http://www.w3.org/1999/xlink" xml:space="preserve" xmlns:serif="http://www.serif.com/" style="fill-rule:evenodd;clip-rule:evenodd;stroke-linejoin:round;stroke-miterlimit:2;"><circle cx="15.206" cy="15.026" r="15" style="fill:url(#_Linear1);"/><g><clipPath id="_clip2"><rect x="7.706" y="7.526" width="15" height="15"/></clipPath><g clip-path="url(#_clip2)"><path d="M20.24,19.053c1.515,-1.211 2.466,-2.961 2.466,-4.907c0,-3.656 -3.358,-6.62 -7.5,-6.62c-4.142,0 -7.5,2.964 -7.5,6.62c0,1.876 0.884,3.569 2.304,4.774c-0.086,0.297 -0.133,0.62 -0.133,0.959c0,1.462 0.884,2.648 1.974,2.648c0.708,0 1.329,-0.5 1.678,-1.252c0.348,0.752 0.969,1.252 1.678,1.252c0.646,0 1.219,-0.416 1.579,-1.059c0.36,0.643 0.933,1.059 1.579,1.059c1.09,0 1.974,-1.186 1.974,-2.648c0,-0.288 -0.034,-0.566 -0.098,-0.825Zm-0.692,-4.776c0,1.856 -1.988,3.361 -4.441,3.361c-2.453,0 -4.441,-1.505 -4.441,-3.361c0,-1.856 1.988,-3.361 4.441,-3.361c2.453,0 4.441,1.505 4.441,3.361Z" style="fill:#fff;"/></g></g><defs><linearGradient id="_Linear1" x1="0" y1="0" x2="1" y2="0" gradientUnits="userSpaceOnUse" gradientTransform="matrix(0,30,-30,0,0.20588,0.025882)"><stop offset="0" style="stop-color:#c261d4;stop-opacity:1"/><stop offset="1" style="stop-color:#a864c7;stop-opacity:1"/></linearGradient></defs></svg>