<?xml version="1.0" encoding="UTF-8" standalone="no"?><!DOCTYPE svg PUBLIC "-//W3C//DTD SVG 1.1//EN" "http://www.w3.org/Graphics/SVG/1.1/DTD/svg11.dtd"><svg width="100%" height="100%" viewBox="0 0 31 31" version="1.1" xmlns="http://www.w3.org/2000/svg" xmlns:xlink="http://www.w3.org/1999/xlink" xml:space="preserve" xmlns:serif="http://www.serif.com/" style="fill-rule:evenodd;clip-rule:evenodd;stroke-linejoin:round;stroke-miterlimit:2;"><circle cx="15.206" cy="15.038" r="15" style="fill:url(#_Linear1);"/><g><path d="M12.942,21.538c2.197,0 4.079,-1.221 4.855,-2.953c0.009,-0.021 -3.118,0.813 -3.018,0.518c0.045,-0.132 1.962,-0.832 3.359,-1.649c0.803,-0.47 1.172,-1.463 1.172,-1.463c0,0 -1.352,0.657 -2.036,0.823c-1.378,0.336 -2.591,0.3 -2.591,0.265c0,-0.076 2.014,-0.458 4.813,-2.164c1.317,-0.802 1.674,-2.184 1.674,-2.184c0,0 -1.448,0.862 -2.323,1.147c-2.075,0.675 -3.969,0.879 -3.969,0.787c0,-0.196 1.667,-0.654 3.434,-1.51c0.919,-0.445 1.714,-1.027 2.636,-1.674c1.509,-1.058 1.758,-2.943 1.758,-2.943c0,0 -1.488,0.96 -2.214,1.279c-2.996,1.315 -5.642,2.005 -7.55,2.154c-2.88,0.226 -5.236,2.235 -5.236,4.843c0,2.609 2.344,4.724 5.236,4.724Z" style="fill:#fff;"/></g><defs><linearGradient id="_Linear1" x1="0" y1="0" x2="1" y2="0" gradientUnits="userSpaceOnUse" gradientTransform="matrix(0,30,-30,0,0.20588,0.037566)"><stop offset="0" style="stop-color:#a6c2f2;stop-opacity:1"/><stop offset="1" style="stop-color:#90a7da;stop-opacity:1"/></linearGradient></defs></svg>