<?xml version="1.0" encoding="UTF-8" standalone="no"?><!DOCTYPE svg PUBLIC "-//W3C//DTD SVG 1.1//EN" "http://www.w3.org/Graphics/SVG/1.1/DTD/svg11.dtd"><svg width="100%" height="100%" viewBox="0 0 31 31" version="1.1" xmlns="http://www.w3.org/2000/svg" xmlns:xlink="http://www.w3.org/1999/xlink" xml:space="preserve" xmlns:serif="http://www.serif.com/" style="fill-rule:evenodd;clip-rule:evenodd;stroke-linejoin:round;stroke-miterlimit:2;"><circle cx="15.206" cy="15.163" r="15" style="fill:url(#_Linear1);"/><g><clipPath id="_clip2"><rect x="7.706" y="7.663" width="15" height="15"/></clipPath><g clip-path="url(#_clip2)"><path d="M21.071,20.122c0,0 -1.891,1.517 -5.655,0.889c-2.856,-0.476 -4.379,-3.624 -4.379,-5.316c0,-4.012 2.969,-4.925 4.976,-4.925c2.007,0 3.317,1.957 3.317,3.472c0,1.515 -1.072,2.841 -2.739,2.841c-1.668,0 -2.162,-1.171 -2.162,-2.247c0,-1.076 0.871,-1.456 1.665,-1.456c0.794,0 1.066,0.678 1.066,1.261c0,0.583 -0.452,0.792 -0.829,0.792c-0.377,0 -0.414,-0.19 -0.559,-0.39c-0.144,-0.2 0.184,-0.957 -0.357,-0.957c-0.541,0 -0.642,0.87 -0.642,0.87c0,0 0.197,1.68 1.817,1.651c1.62,-0.029 2.388,-1.281 2.165,-2.521c-0.223,-1.24 -1.426,-2.557 -3.538,-2.291c-2.112,0.266 -2.974,2.4 -2.594,4.68c0.38,2.28 3.111,3.601 5.259,3.126c2.148,-0.475 4.287,-2.03 4.287,-5.972c0,-3.942 -3.414,-6.312 -7.485,-5.921c-4.071,0.391 -6.598,3.95 -6.436,8.226c0.162,4.276 4.219,6.605 7.651,6.725c3.431,0.12 5.535,-1.866 5.535,-1.866c0,0 0.473,-0.422 0.288,-0.751c-0.185,-0.329 -0.65,0.081 -0.65,0.081Z" style="fill:#fff;"/></g></g><defs><linearGradient id="_Linear1" x1="0" y1="0" x2="1" y2="0" gradientUnits="userSpaceOnUse" gradientTransform="matrix(0,30,-30,0,0.20588,0.163408)"><stop offset="0" style="stop-color:#fe9f92;stop-opacity:1"/><stop offset="1" style="stop-color:#f66f71;stop-opacity:1"/></linearGradient></defs></svg>