<?xml version="1.0" encoding="UTF-8" standalone="no"?><!DOCTYPE svg PUBLIC "-//W3C//DTD SVG 1.1//EN" "http://www.w3.org/Graphics/SVG/1.1/DTD/svg11.dtd"><svg width="100%" height="100%" viewBox="0 0 31 31" version="1.1" xmlns="http://www.w3.org/2000/svg" xmlns:xlink="http://www.w3.org/1999/xlink" xml:space="preserve" xmlns:serif="http://www.serif.com/" style="fill-rule:evenodd;clip-rule:evenodd;stroke-linejoin:round;stroke-miterlimit:2;"><circle cx="15.206" cy="15.073" r="15" style="fill:url(#_Linear1);"/><g><clipPath id="_clip2"><rect x="7.706" y="7.573" width="15" height="15"/></clipPath><g clip-path="url(#_clip2)"><path d="M14.436,20.84c0.285,0.044 0.577,0.066 0.874,0.066c3.164,0 5.729,-2.565 5.729,-5.729c0,-3.164 -2.565,-5.729 -5.729,-5.729c-0.212,0 -0.422,0.012 -0.628,0.034c1.57,1.189 2.607,3.249 2.607,5.591c0,2.462 -1.147,4.613 -2.853,5.767Zm0.77,1.733c4.142,0 7.5,-3.358 7.5,-7.5c0,-4.142 -3.358,-7.5 -7.5,-7.5c-4.142,0 -7.5,3.358 -7.5,7.5c0,4.142 3.358,7.5 7.5,7.5Z" style="fill:#fff;"/></g></g><defs><linearGradient id="_Linear1" x1="0" y1="0" x2="1" y2="0" gradientUnits="userSpaceOnUse" gradientTransform="matrix(0,30,-30,0,15.20588,0.072619)"><stop offset="0" style="stop-color:#9298a4;stop-opacity:1"/><stop offset="1" style="stop-color:#6e7587;stop-opacity:1"/></linearGradient></defs></svg>