<?xml version="1.0" encoding="UTF-8" standalone="no"?><!DOCTYPE svg PUBLIC "-//W3C//DTD SVG 1.1//EN" "http://www.w3.org/Graphics/SVG/1.1/DTD/svg11.dtd"><svg width="100%" height="100%" viewBox="0 0 31 31" version="1.1" xmlns="http://www.w3.org/2000/svg" xmlns:xlink="http://www.w3.org/1999/xlink" xml:space="preserve" xmlns:serif="http://www.serif.com/" style="fill-rule:evenodd;clip-rule:evenodd;stroke-linejoin:round;stroke-miterlimit:2;"><circle cx="15.206" cy="15.198" r="15" style="fill:url(#_Linear1);"/><g><clipPath id="_clip2"><rect x="7.706" y="7.698" width="15" height="15"/></clipPath><g clip-path="url(#_clip2)"><path d="M7.707,15.159c-0.002,-0.003 -0.002,-0.008 -0,-0.011l3.772,-6.444c0.002,-0.003 0.006,-0.005 0.009,-0.005l7.476,0c0.004,0 0.008,0.002 0.009,0.005l3.73,6.444c0.002,0.003 0.002,0.008 0,0.011l-3.73,6.437c-0.002,0.003 -0.006,0.005 -0.009,0.005l-7.476,0c-0.004,0 -0.007,-0.002 -0.009,-0.005l-3.772,-6.437Zm10.974,-0.009c0,1.919 -1.555,3.474 -3.474,3.474c-1.919,0 -3.474,-1.555 -3.474,-3.474c0,-1.919 1.555,-3.474 3.474,-3.474c1.919,0 3.474,1.555 3.474,3.474Z" style="fill:#fff;"/></g></g><defs><linearGradient id="_Linear1" x1="0" y1="0" x2="1" y2="0" gradientUnits="userSpaceOnUse" gradientTransform="matrix(0,30,-30,0,0.20588,0.198461)"><stop offset="0" style="stop-color:#58a6aa;stop-opacity:1"/><stop offset="1" style="stop-color:#52869d;stop-opacity:1"/></linearGradient></defs></svg>